<svg width="100" height="100" viewBox="0 0 100 100" fill="none" xmlns="http://www.w3.org/2000/svg">
<path d="M77.7779 66.6668C80.8459 66.6668 83.3334 69.1543 83.3334 72.2223C83.3334 75.2904 80.8459 77.7779 77.7779 77.7779C76.1084 77.7779 23.8917 77.7779 22.2222 77.7779C19.1542 77.7779 16.6667 75.2904 16.6667 72.2223C16.6667 69.1543 19.1542 66.6668 22.2222 66.6668C23.8917 66.6668 76.1084 66.6668 77.7779 66.6668ZM77.7779 44.4445C80.8459 44.4445 83.3334 46.932 83.3334 50.0001C83.3334 53.0681 80.8459 55.5556 77.7779 55.5556C76.1084 55.5556 23.8917 55.5556 22.2222 55.5556C19.1542 55.5556 16.6667 53.0681 16.6667 50.0001C16.6667 46.932 19.1542 44.4445 22.2222 44.4445C23.8917 44.4445 76.1084 44.4445 77.7779 44.4445ZM77.7779 22.2223C80.8459 22.2223 83.3334 24.7098 83.3334 27.7778C83.3334 30.8459 80.8459 33.3334 77.7779 33.3334C76.1084 33.3334 23.8917 33.3334 22.2222 33.3334C19.1542 33.3334 16.6667 30.8459 16.6667 27.7778C16.6667 24.7098 19.1542 22.2223 22.2222 22.2223C23.8917 22.2223 76.1084 22.2223 77.7779 22.2223Z" fill="#22C3E6"/>
</svg>
